Coordinates
version=1
nRows=10
nColumns=40
inDegrees=yes

Units are S.I. units (second, meters, Newtons, ...)
Angles are in degrees.

endheader
time	pelvis_tilt	pelvis_list	pelvis_rotation	pelvis_tx	pelvis_ty	pelvis_tz	hip_flexion_r	hip_adduction_r	hip_rotation_r	knee_angle_r	knee_angle_r_beta	ankle_angle_r	subtalar_angle_r	mtp_angle_r	hip_flexion_l	hip_adduction_l	hip_rotation_l	knee_angle_l	knee_angle_l_beta	ankle_angle_l	subtalar_angle_l	mtp_angle_l	lumbar_extension	lumbar_bending	lumbar_rotation	arm_flex_r	arm_add_r	arm_rot_r	elbow_flex_r	pro_sup_r	wrist_flex_r	wrist_dev_r	arm_flex_l	arm_add_l	arm_rot_l	elbow_flex_l	pro_sup_l	wrist_flex_l	wrist_dev_l
      1.46000000	     -0.23670240	     -5.14239395	      5.35691772	     -0.11795648	      0.94312290	     -1.00206842	     20.09729592	      1.15455049	    -20.27245992	    -22.12833841	     -0.38621236	     -2.54999640	     -8.87677908	      0.89070412	     -6.80174595	     15.07589314	     14.04168067	    -37.34614024	     -0.65181311	     -9.30855369	      5.24739775	     -9.98961094	     -2.87336223	      6.82899362	     -7.42453171	     -3.66402029	     -9.79991034	    -21.71559214	     13.07354054	     89.95437384	      0.00000000	      0.00000000	      6.97372101	     11.70189381	      4.98342657	     31.20570805	     89.95437384	      0.00000000	      0.00000000
      1.47000000	     -0.81206437	     -5.31512840	      5.46818821	     -0.10941657	      0.94372922	     -0.99915174	     20.08630196	      1.62951021	    -20.03998333	    -21.93339172	     -0.38280990	     -2.35540049	     -9.55717044	      1.33843572	     -4.39392854	     15.44783126	     13.07473290	    -40.32298561	     -0.70376886	     -9.39258061	      7.55711054	     -9.42035748	     -2.17857620	      6.87639776	     -7.36105550	     -3.31908718	     -9.78337886	    -21.87186616	     13.14064997	     89.95437384	      0.00000000	      0.00000000	      6.33485251	     11.54945158	      5.17747199	     30.37736205	     89.95437384	      0.00000000	      0.00000000
      1.48000000	     -0.83489549	     -5.44988467	      5.54895122	     -0.10049196	      0.94522122	     -0.99651902	     19.33446056	      2.08047047	    -19.96409428	    -21.60966718	     -0.37715984	     -1.55178573	     -9.27966085	      1.33519061	     -2.81298005	     15.76644286	     12.44423197	    -42.86555778	     -0.74814512	     -8.76931345	      9.61539485	     -9.19602983	     -2.10998701	      6.95362684	     -7.10758676	     -2.94184465	     -9.80670325	    -21.96506004	     13.26929682	     89.95437384	      0.00000000	      0.00000000	      5.79895635	     11.43538165	      4.94843814	     29.54222166	     89.95437384	      0.00000000	      0.00000000
      1.49000000	     -1.31502771	     -5.45305317	      5.84490901	     -0.09217322	      0.94589450	     -0.99451345	     19.17289417	      2.17521683	    -20.21390764	    -21.42667231	     -0.37396598	     -1.21103619	     -9.15165648	      1.50826542	     -0.43620856	     15.83272797	     11.66509082	    -45.59506853	     -0.79578407	     -7.26581241	     12.17217642	     -8.85174414	     -1.54805541	      6.84937384	     -7.13118543	     -2.68515118	     -9.76829985	    -22.38276977	     13.65060701	     89.95437384	      0.00000000	      0.00000000	      5.23515589	     11.27443835	      5.04957816	     28.70927021	     89.95437384	      0.00000000	      0.00000000
      1.50000000	     -1.68105258	     -5.34454407	      6.15702554	     -0.08403083	      0.94676228	     -0.99268708	     18.92013602	      2.13986359	    -20.45187347	    -21.34277226	     -0.37250165	     -0.72667206	     -9.10543559	      1.72514623	      1.78528926	     15.74601659	     11.09969950	    -48.03360870	     -0.83834462	     -5.68940797	     14.21877278	     -7.92374100	     -1.15748989	      6.63186078	     -7.11586098	     -2.23787277	     -9.72222437	    -22.97999208	     13.78834866	     89.95437384	      0.00000000	      0.00000000	      4.74668336	     11.19402105	      4.93594220	     27.83154566	     89.95437384	      0.00000000	      0.00000000
      1.51000000	     -1.88159961	     -5.29342552	      6.47435387	     -0.07579585	      0.94781219	     -0.99091997	     18.39587266	      2.19833289	    -20.80956323	    -21.06985464	     -0.36773834	     -0.19293999	     -8.81207008	      1.91463118	      3.75755163	     15.69200056	     10.61220924	    -50.18360609	     -0.87586916	     -3.87344656	     15.73612244	     -6.06216322	     -0.95588082	      6.49734060	     -7.05040379	     -1.83796369	     -9.73138845	    -23.17665703	     13.97936299	     89.95437384	      0.00000000	      0.00000000	      4.30903312	     11.10914839	      4.78640920	     26.88559114	     89.95437384	      0.00000000	      0.00000000
      1.52000000	     -1.99358671	     -5.19509159	      6.84159839	     -0.06778528	      0.94904495	     -0.98927596	     17.72088234	      2.23483814	    -21.17100645	    -20.68029878	     -0.36093930	      0.27006920	     -8.46915559	      1.97532768	      5.64900543	     15.51423941	     10.03877024	    -52.12029719	     -0.90967079	     -1.48612249	     16.59464019	     -1.04625786	     -0.90020142	      6.31059148	     -7.01579976	     -1.47976121	     -9.69504884	    -23.43917354	     14.44882101	     89.95437384	      0.00000000	      0.00000000	      3.93398797	     10.96477088	      5.11423470	     25.96594174	     89.95437384	      0.00000000	      0.00000000
      1.53000000	     -1.69991287	     -4.90860735	      7.02904514	     -0.05946794	      0.95096017	     -0.98775107	     16.51600648	      2.21882089	    -21.16790063	    -20.18161445	     -0.35223562	      0.75785609	     -8.33208733	      1.89180626	      6.75736233	     15.15279453	      9.85006448	    -53.43113051	     -0.93254915	     -0.30649237	     17.37040940	     -0.91315532	     -1.33818394	      5.99988627	     -6.75813182	     -0.97842592	     -9.74835778	    -23.44771838	     14.76069621	     89.95437384	      0.00000000	      0.00000000	      3.56252482	     10.95567553	      4.90526259	     25.08500101	     89.95437384	      0.00000000	      0.00000000
      1.54000000	     -1.58249242	     -4.54070818	      7.06133553	     -0.05137256	      0.95260216	     -0.98582833	     15.55960529	      2.07276179	    -21.51115563	    -19.75865726	     -0.34485362	      1.11012135	     -8.25037180	      1.83419276	      7.99000634	     14.78810115	     10.06233514	    -54.47541699	     -0.95077539	      0.30471601	     17.64932760	     -0.85818478	     -1.63618893	      5.53834079	     -6.34656073	     -0.57279429	     -9.72457159	    -23.39420384	     15.18771546	     89.95437384	      0.00000000	      0.00000000	      3.10143257	     10.98154381	      4.84937424	     24.43850110	     89.95437384	      0.00000000	      0.00000000
      1.55000000	     -1.67828111	     -4.41553090	      7.72588908	     -0.04378711	      0.95378242	     -0.98529629	     14.75862242	      1.91694741	    -22.53328190	    -19.21348692	     -0.33533861	      1.64653503	     -6.87263863	      0.93118814	      9.94213455	     14.13751250	      8.88767710	    -55.88647673	     -0.97540303	      4.76327480	     17.67857489	     13.75443684	     -1.61676534	      5.38006704	     -6.54386505	     -0.23748661	     -9.78704182	    -23.51594031	     15.89028891	     89.95437384	      0.00000000	      0.00000000	      2.85985468	     10.88180758	      4.93722084	     23.31969349	     89.95437384	      0.00000000	      0.00000000
